<?xml version="1.0" standalone="no"?>
<!DOCTYPE svg PUBLIC "-//W3C//DTD SVG 20010904//EN"
 "http://www.w3.org/TR/2001/REC-SVG-20010904/DTD/svg10.dtd">
<svg version="1.0" xmlns="http://www.w3.org/2000/svg"
 width="512.000000pt" height="512.000000pt" viewBox="0 0 512.000000 512.000000"
 preserveAspectRatio="xMidYMid meet">
<metadata>
Created by potrace 1.14, written by Peter Selinger 2001-2017
</metadata>
<g transform="translate(0.000000,512.000000) scale(0.100000,-0.100000)"
fill="#000000" stroke="none">
<path d="M2350 4804 c-14 -2 -65 -9 -115 -15 -531 -66 -1100 -393 -1435 -824
-30 -38 -58 -74 -63 -80 -82 -104 -243 -400 -282 -517 -10 -31 -23 -54 -28
-51 -6 3 -7 1 -3 -5 8 -13 -15 -92 -27 -92 -5 0 -5 -4 -2 -10 3 -5 3 -16 -2
-22 -8 -14 -9 -19 -11 -56 -1 -13 -6 -21 -11 -18 -4 3 -6 -6 -3 -19 2 -14 0
-25 -7 -25 -5 0 -8 -7 -4 -15 3 -9 -3 -23 -13 -31 -11 -9 -13 -12 -5 -8 11 5
12 1 7 -22 -4 -16 -9 -51 -12 -79 -3 -27 -9 -54 -13 -60 -4 -5 -6 -25 -4 -43
2 -24 0 -31 -10 -26 -9 6 -9 5 0 -8 7 -8 11 -17 8 -20 -3 -3 -6 -29 -6 -59 -1
-30 -6 -60 -13 -68 -8 -11 -8 -13 2 -7 6 4 12 3 12 -1 0 -5 -6 -15 -12 -22
-10 -11 -10 -13 0 -7 7 4 12 1 12 -8 0 -9 -6 -16 -12 -16 -9 0 -9 -3 -3 -8 15
-10 16 -142 1 -142 -8 0 -8 -2 1 -8 15 -10 21 -87 6 -87 -6 0 -15 -3 -19 -7
-3 -4 3 -5 15 -3 16 3 21 0 19 -13 -2 -9 -10 -22 -18 -29 -12 -10 -11 -11 9
-6 19 5 23 3 18 -9 -3 -9 -1 -35 4 -58 5 -24 12 -57 15 -74 2 -17 6 -41 9 -54
2 -18 0 -22 -11 -18 -9 3 -12 1 -9 -4 3 -6 14 -10 23 -11 11 0 12 -3 5 -6 -7
-2 -13 -9 -13 -14 0 -6 4 -8 9 -5 5 3 11 -3 14 -14 3 -12 -1 -20 -12 -23 -11
-3 -9 -5 7 -6 12 0 22 -6 22 -12 0 -5 -4 -8 -9 -4 -11 6 -6 -34 5 -44 4 -3 4
3 0 14 -5 15 -4 17 4 9 9 -9 9 -17 0 -33 -12 -23 -6 -41 13 -41 7 0 6 4 -3 10
-8 5 -11 12 -7 16 10 10 17 1 22 -26 2 -12 7 -25 9 -28 3 -2 0 -14 -6 -26 -11
-20 -10 -20 7 -6 14 11 17 11 11 1 -5 -8 -3 -17 5 -23 11 -8 10 -9 -3 -4 -12
3 -15 1 -11 -10 3 -7 12 -14 21 -14 12 0 13 -3 5 -11 -6 -6 -9 -18 -6 -27 4
-10 2 -13 -5 -8 -14 9 -7 -34 9 -48 9 -8 9 -6 1 10 -12 24 -7 34 17 34 14 0
14 -2 1 -10 -13 -8 -13 -11 -1 -22 11 -11 13 -11 6 1 -5 9 -4 12 3 7 7 -4 12
-16 12 -27 0 -10 5 -19 11 -19 5 0 7 -4 4 -10 -3 -5 -1 -10 5 -10 6 0 8 -4 5
-10 -3 -5 -1 -10 5 -10 6 0 9 -4 5 -9 -3 -5 2 -17 11 -25 8 -9 12 -16 8 -16
-4 0 0 -8 9 -18 10 -10 15 -21 12 -24 -3 -3 4 -13 15 -23 15 -13 17 -22 9 -36
-5 -11 -7 -19 -3 -19 3 0 -2 -8 -13 -17 -10 -10 -14 -15 -8 -11 7 4 15 5 18 1
4 -3 8 -1 8 5 3 27 4 31 13 39 5 4 6 3 2 -4 -3 -6 -2 -14 4 -18 5 -3 10 -11
10 -16 0 -6 -4 -7 -10 -4 -6 3 -7 -1 -4 -10 5 -13 9 -13 22 -3 9 7 13 8 9 2
-4 -6 2 -19 13 -29 11 -10 18 -21 15 -25 -2 -4 6 -17 20 -30 20 -19 22 -25 12
-41 -9 -16 -9 -21 1 -28 8 -4 13 -11 13 -15 -3 -18 0 -23 15 -23 14 0 14 2 -2
14 -12 9 -14 13 -4 13 9 0 8 4 -5 13 -12 9 -14 16 -7 21 6 3 16 -3 22 -14 6
-11 8 -20 5 -20 -3 0 0 -6 7 -14 7 -8 16 -12 20 -9 15 8 8 -5 -9 -18 -11 -9
-14 -10 -9 -2 5 9 2 11 -9 6 -13 -4 -14 -8 -4 -14 7 -4 21 -3 30 2 11 6 20 5
24 -1 3 -5 5 -10 3 -11 -2 0 -11 -2 -21 -4 -22 -4 -35 -15 -19 -15 15 0 43
-55 34 -65 -4 -4 3 -2 16 4 26 14 29 4 5 -15 -17 -13 -17 -14 0 -8 13 5 16 2
11 -12 -6 -17 -5 -17 9 1 18 23 5 58 -18 49 -8 -4 -15 -1 -15 6 0 6 5 8 12 4
7 -4 8 -3 4 5 -4 6 -11 9 -16 6 -4 -3 -10 1 -13 9 -6 14 21 32 31 21 3 -3 0
-5 -6 -5 -7 0 -5 -8 5 -19 9 -11 21 -17 26 -14 6 3 7 1 3 -5 -4 -7 0 -12 11
-13 11 0 13 -3 5 -6 -6 -2 -10 -9 -7 -14 3 -5 1 -19 -5 -31 -11 -21 -10 -21
12 2 12 14 22 24 21 22 -1 -3 4 -17 12 -33 19 -35 19 -40 0 -33 -8 4 -15 1
-15 -5 0 -6 3 -10 8 -9 4 2 18 -5 32 -15 19 -13 21 -17 7 -17 -9 0 -17 -4 -17
-9 0 -6 16 -3 35 5 22 9 35 10 35 4 0 -6 4 -9 8 -6 5 3 9 -1 9 -9 0 -8 -4 -12
-9 -9 -4 3 -8 0 -8 -5 0 -6 -5 -11 -11 -11 -8 0 -8 5 1 15 9 10 9 15 1 15 -6
0 -11 -5 -11 -11 0 -5 -4 -8 -8 -5 -5 3 -9 -1 -9 -9 0 -13 45 -13 66 -1 11 7
33 -18 29 -34 -2 -7 3 -15 11 -18 9 -3 11 0 6 8 -6 9 -4 11 6 5 36 -21 40 -27
27 -43 -11 -13 -10 -14 9 -8 24 8 41 -9 17 -18 -9 -4 -13 -2 -8 5 4 8 1 8 -14
0 -30 -16 -34 -14 -22 12 10 20 10 20 -3 5 -8 -10 -18 -14 -23 -10 -4 4 -2 -1
5 -11 8 -10 21 -15 32 -12 21 7 50 -30 42 -54 -4 -9 -3 -13 2 -9 4 4 15 2 23
-5 10 -8 9 -2 -4 18 -10 16 -13 26 -7 22 9 -6 11 -3 7 7 -3 9 -10 14 -14 11
-5 -3 -12 0 -16 7 -4 7 -4 10 1 6 4 -4 14 -3 21 3 9 8 16 5 24 -11 6 -11 15
-18 20 -15 16 10 21 -14 9 -37 -11 -21 -11 -22 5 -9 15 13 19 13 27 0 8 -12
10 -12 20 1 9 12 10 12 5 -4 -5 -13 -2 -17 9 -13 8 4 17 1 21 -5 4 -7 3 -8 -4
-4 -7 4 -12 3 -12 -2 0 -16 13 -22 26 -11 7 5 14 6 17 2 7 -12 -4 -64 -12 -58
-4 2 -8 -2 -8 -10 0 -8 4 -12 8 -9 4 2 10 0 14 -6 3 -5 11 -10 18 -10 6 0 3 6
-7 13 -17 12 -17 15 -3 29 9 9 14 18 12 20 -3 3 1 5 8 5 8 0 14 -6 14 -13 0
-7 -4 -11 -8 -9 -4 3 -9 -1 -12 -8 -4 -10 4 -14 24 -14 24 0 27 3 16 15 -9 12
-5 11 15 -2 17 -11 25 -23 22 -34 -4 -13 -2 -13 12 3 14 17 16 17 11 3 -4 -10
-2 -18 3 -18 6 0 10 -4 10 -9 0 -10 -25 -9 -36 1 -3 4 -12 4 -19 2 -7 -3 -16
0 -21 7 -5 9 -2 11 9 6 8 -3 18 0 21 8 3 10 -3 13 -22 11 -35 -4 -38 -19 -8
-36 14 -7 23 -18 19 -23 -3 -6 -1 -7 5 -3 6 3 18 -2 28 -11 16 -16 16 -16 9 7
-6 20 -5 22 5 13 7 -6 20 -9 29 -6 14 4 14 3 1 -9 -8 -7 -22 -22 -29 -33 -14
-19 -14 -19 4 -3 17 16 19 16 32 0 13 -15 13 -14 3 5 -15 31 4 29 24 -2 15
-23 13 -30 -7 -26 -5 1 -6 -3 -2 -9 5 -8 11 -7 21 1 8 6 23 9 34 6 11 -3 23 0
27 5 3 6 1 8 -5 5 -6 -5 -8 0 -5 13 6 21 15 25 27 12 4 -4 11 -7 14 -7 4 -1
17 -6 28 -13 12 -6 25 -8 29 -4 5 4 5 1 1 -5 -4 -7 -4 -18 0 -25 5 -8 10 -6
15 8 6 16 8 16 8 2 1 -11 8 -16 22 -13 15 3 19 0 14 -14 -6 -19 18 -23 45 -6
10 5 8 1 -3 -13 -19 -20 -19 -20 19 -17 39 3 88 -20 78 -36 -3 -5 -1 -9 4 -9
17 0 22 13 10 27 -6 7 -8 16 -4 20 3 3 6 1 6 -6 0 -7 5 -9 12 -5 7 4 10 4 6 0
-9 -11 15 -35 27 -28 6 3 4 -1 -3 -10 -10 -13 -10 -17 3 -22 10 -3 13 -11 9
-18 -4 -7 -4 -10 1 -6 4 4 14 0 22 -10 13 -15 13 -15 3 6 -8 16 -8 22 0 22 6
0 8 5 4 12 -4 6 -3 8 4 4 6 -3 13 2 15 11 4 16 5 16 6 -1 1 -11 6 -16 15 -13
11 4 13 1 9 -10 -4 -9 -2 -14 3 -10 6 3 16 2 23 -2 9 -6 10 -11 2 -15 -6 -4
-11 -3 -11 3 0 10 -38 6 -49 -5 -3 -4 1 -5 10 -1 9 3 27 -2 40 -10 12 -9 19
-11 15 -5 -4 7 1 10 14 9 15 -1 19 -7 15 -22 -3 -11 -2 -14 1 -7 3 6 10 12 15
12 6 0 8 -4 5 -9 -3 -5 2 -15 12 -22 15 -12 16 -12 5 2 -7 9 -10 19 -6 22 12
12 23 7 23 -10 0 -10 4 -14 8 -8 10 14 32 17 32 4 0 -5 4 -7 10 -4 6 3 10 1
10 -6 0 -7 2 -10 5 -7 12 12 -8 36 -26 33 -11 -2 -17 0 -14 5 3 6 -2 7 -12 4
-15 -5 -15 -4 -3 5 12 8 11 10 -8 8 -12 0 -22 -5 -22 -10 0 -5 -7 -4 -15 3 -8
7 -12 16 -9 21 3 5 0 9 -5 9 -6 0 -11 -5 -11 -12 0 -6 -2 -9 -5 -6 -3 3 -3 13
1 22 5 14 9 14 22 4 14 -11 15 -10 8 7 -6 16 -5 17 5 8 10 -10 9 -15 -1 -28
-7 -8 -8 -15 -2 -15 12 0 34 25 27 32 -3 2 2 5 10 5 11 0 12 -4 4 -14 -8 -9
-8 -13 -1 -13 6 0 14 5 17 10 11 18 26 -1 19 -23 -6 -19 -5 -20 8 -10 8 7 18
10 21 6 4 -3 7 1 7 10 0 10 4 17 10 17 5 0 7 -8 4 -17 -5 -17 -5 -17 9 0 14
17 15 16 20 -4 5 -20 8 -21 23 -8 12 9 15 10 10 2 -4 -8 -1 -13 8 -13 9 0 16
-4 16 -8 0 -5 -7 -9 -15 -9 -8 0 -15 5 -15 11 0 6 -4 5 -9 -3 -5 -7 -14 -10
-20 -7 -6 4 -9 12 -6 17 4 5 -2 8 -12 6 -10 -1 -18 -7 -18 -12 0 -6 6 -9 13
-7 9 2 11 -1 6 -9 -4 -8 -3 -10 4 -5 7 4 12 2 12 -4 0 -6 4 -8 10 -5 6 3 11 1
11 -4 3 -26 4 -30 11 -36 4 -4 5 5 2 20 -3 16 -1 24 5 21 5 -4 12 -2 15 3 3 5
16 7 28 3 14 -3 19 -2 14 7 -4 6 -11 9 -15 7 -4 -3 -7 5 -8 17 0 12 1 16 4 9
3 -6 9 -10 14 -6 5 3 8 0 7 -7 -2 -6 3 -14 11 -17 8 -2 11 0 8 5 -3 5 -1 15 5
23 8 12 9 12 4 -2 -3 -10 -1 -20 4 -23 5 -3 11 3 13 12 3 10 4 6 4 -9 -1 -19
-5 -24 -13 -18 -6 6 -14 7 -17 4 -9 -10 12 -44 26 -43 9 0 9 2 0 6 -20 7 -15
19 7 20 13 1 18 -2 14 -10 -4 -7 -1 -6 7 2 11 10 11 15 2 18 -20 7 -15 23 5
17 16 -5 16 -5 0 9 -24 19 -23 30 2 15 13 -8 18 -20 16 -35 -6 -30 17 -48 35
-27 10 13 10 17 -1 24 -8 5 -18 6 -24 3 -5 -3 -6 -1 -2 6 4 6 11 9 16 6 5 -3
11 -1 15 5 3 5 1 10 -4 10 -6 0 -11 5 -11 12 0 6 8 4 19 -6 14 -12 20 -14 23
-5 2 7 12 13 21 15 9 1 15 -2 11 -7 -3 -5 -10 -7 -15 -4 -5 4 -9 2 -9 -4 0
-14 16 -22 24 -13 10 10 56 10 50 0 -3 -4 0 -8 5 -8 6 0 11 6 11 14 0 8 4 18
10 21 6 3 7 -1 4 -10 -4 -8 -2 -21 4 -28 5 -6 8 -20 7 -29 -4 -24 7 -23 23 3
8 12 10 19 5 16 -5 -3 -14 3 -21 14 -14 23 -7 25 14 4 17 -17 39 -21 29 -5 -3
6 1 7 10 4 14 -6 13 -8 -5 -21 -11 -8 -20 -20 -20 -26 0 -7 5 -4 11 6 5 9 15
17 20 17 6 0 7 -6 2 -12 -11 -19 -13 -39 -2 -32 5 3 7 9 4 14 -3 5 -1 11 5 15
6 4 8 11 5 16 -10 15 13 10 30 -7 15 -16 18 -15 38 4 l21 22 -22 -5 c-15 -2
-20 0 -16 7 5 7 2 8 -7 4 -8 -4 -3 2 10 13 18 17 27 19 37 10 8 -6 14 -8 14
-4 0 4 7 2 15 -5 9 -8 15 -8 15 -2 0 6 16 9 35 8 35 -3 42 2 28 20 -5 5 0 1
10 -10 19 -21 37 -15 19 7 -9 10 -8 14 3 14 8 0 12 -4 10 -8 -5 -7 25 -23 38
-20 5 1 6 -3 2 -9 -3 -6 -11 -8 -16 -5 -5 4 -9 0 -9 -7 0 -10 -2 -10 -9 1 -6
9 -11 10 -15 2 -4 -6 -12 -11 -17 -11 -6 0 -8 4 -5 8 2 4 -5 9 -17 9 -17 2
-18 0 -7 -7 11 -7 10 -9 -8 -7 -12 0 -22 5 -22 10 0 5 -7 4 -15 -3 -19 -16 -4
-37 16 -24 26 16 50 12 44 -7 -3 -9 0 -21 6 -25 8 -4 9 -3 5 5 -14 22 14 41
53 36 25 -3 32 -2 21 5 -8 5 -13 10 -10 11 3 0 14 2 25 4 11 2 28 -4 39 -13
11 -9 16 -12 13 -5 -4 6 4 20 18 31 14 11 25 23 25 27 0 4 -6 2 -13 -4 -8 -6
-18 -7 -22 -3 -5 4 -5 1 0 -7 5 -9 4 -12 -3 -7 -18 11 -14 27 4 24 10 -2 19 3
21 10 3 8 -2 10 -14 6 -15 -5 -15 -4 2 7 30 20 49 21 34 3 -20 -25 -4 -24 25
1 25 21 56 25 56 6 0 -4 7 -8 15 -8 22 0 18 12 -7 25 l-23 10 22 -1 c23 -1 38
-21 28 -37 -3 -5 -14 -7 -25 -5 -11 2 -20 0 -20 -4 0 -4 -7 -8 -15 -8 -8 0
-15 4 -15 9 0 5 -9 4 -21 -2 -12 -7 -18 -18 -15 -26 3 -8 2 -14 -2 -14 -5 0
-16 -6 -25 -13 -16 -11 -15 -12 9 -14 16 0 22 2 15 7 -9 5 -8 9 4 14 9 3 21 4
26 1 5 -4 6 1 3 9 -3 9 -11 13 -18 9 -6 -3 -5 0 2 8 11 12 14 12 22 -1 7 -11
10 -12 10 -2 0 10 4 10 16 -2 17 -17 25 -20 23 -9 -3 17 1 33 9 32 4 -1 10 0
15 1 19 6 33 5 39 -4 4 -6 9 -8 12 -5 3 3 -6 18 -19 33 -14 16 -25 34 -25 40
0 6 7 0 16 -12 8 -12 20 -19 26 -16 6 4 5 9 -3 15 -7 4 -10 11 -6 16 13 12 27
-20 15 -34 -7 -9 -5 -15 8 -20 10 -4 19 -2 22 5 2 7 9 9 14 6 7 -5 8 -2 3 6
-6 9 -2 10 16 5 28 -9 24 -3 -10 15 -15 8 -21 8 -17 1 4 -6 5 -11 2 -11 -3 0
-10 9 -16 21 -10 18 -10 19 8 10 11 -6 22 -7 26 -4 3 3 6 2 6 -4 0 -18 54 -23
72 -6 9 8 23 12 30 8 7 -3 5 0 -4 8 -10 8 -18 19 -18 25 0 13 26 23 45 16 12
-5 13 -9 4 -20 -7 -8 -9 -17 -5 -21 3 -3 6 0 6 8 0 12 2 12 10 -1 5 -8 13 -11
17 -6 4 5 2 11 -5 13 -6 3 -9 10 -6 15 4 6 -1 17 -11 24 -16 12 -16 13 3 11
11 0 20 -6 19 -12 -1 -5 7 -8 18 -7 11 2 30 4 42 4 17 0 19 3 10 13 -9 10 -16
9 -35 -3 -17 -11 -22 -12 -20 -2 2 7 -8 17 -22 21 -23 6 -23 7 -3 8 12 1 25
-3 28 -9 3 -5 11 -10 18 -10 8 0 8 3 -1 12 -17 17 -15 25 8 31 10 3 25 -1 31
-9 7 -9 21 -12 33 -9 13 4 16 3 9 -2 -8 -6 -9 -14 -3 -23 9 -13 10 -13 11 0 0
8 2 23 4 32 3 14 0 16 -15 8 -13 -7 -21 -5 -31 8 -13 15 -12 16 4 3 12 -9 17
-10 17 -2 0 7 5 9 10 6 6 -3 10 -2 10 4 0 5 -3 11 -7 14 -5 2 -3 2 4 1 6 -2
14 2 17 9 3 7 4 3 1 -9 -4 -14 0 -21 10 -21 11 0 13 6 9 20 -5 15 -3 19 9 14
15 -6 37 10 37 26 0 5 -8 3 -17 -4 -16 -13 -17 -12 -4 4 10 13 17 14 27 6 9
-8 17 -4 29 15 10 14 22 23 31 19 8 -3 14 1 14 10 0 8 7 18 16 21 22 8 34 7
34 -3 0 -5 -8 -8 -17 -7 -10 0 -18 -6 -18 -14 -1 -8 -7 -24 -14 -35 -8 -14
-11 -15 -7 -3 3 9 -2 19 -10 22 -12 5 -14 1 -9 -17 5 -18 4 -19 -5 -7 -10 13
-11 12 -6 -3 4 -11 2 -16 -5 -12 -11 8 -64 -23 -55 -32 3 -3 12 0 21 7 8 7 15
8 15 2 0 -17 -32 -23 -49 -10 -14 11 -14 11 -3 -4 14 -17 52 -21 52 -5 0 5 6
4 14 -2 11 -9 16 -9 22 0 4 7 3 9 -4 5 -6 -3 -16 3 -22 14 -12 22 -7 25 20 10
17 -9 18 -8 13 7 -6 16 -5 17 12 3 10 -8 16 -10 12 -4 -4 7 0 15 9 18 8 3 12
10 9 16 -3 5 -1 10 4 10 11 0 15 -13 12 -40 -2 -13 0 -13 8 -1 6 9 6 22 1 31
-10 18 -2 34 20 38 8 2 17 8 18 13 2 5 8 7 12 4 5 -3 7 -12 3 -20 -3 -8 0 -15
7 -15 6 0 8 5 5 10 -3 6 -1 10 4 10 6 0 3 8 -6 18 -16 16 -19 16 -33 2 -8 -9
-14 -14 -13 -11 2 2 -2 10 -9 18 -6 8 -7 13 -2 12 23 -4 35 2 28 14 -8 13 24
-10 39 -28 5 -6 6 -2 3 8 -5 14 -2 17 13 12 29 -9 54 21 40 48 -9 16 -9 22 0
25 6 2 8 9 4 15 -4 7 -1 7 9 -1 11 -9 18 -10 23 -2 3 5 0 10 -7 10 -9 0 -9 3
2 10 20 13 30 12 30 -1 0 -5 -4 -8 -9 -4 -6 3 -8 -7 -5 -22 2 -16 1 -23 -3
-18 -9 12 -28 13 -39 2 -6 -6 3 -7 44 -7 4 0 7 7 7 16 0 22 26 34 47 23 14 -7
16 -6 12 5 -3 8 -14 13 -24 11 -14 -3 -17 1 -13 12 4 11 2 14 -5 9 -20 -12
-13 -2 18 27 21 21 28 23 23 10 -6 -16 -5 -16 11 -4 9 8 15 20 12 27 -3 8 0
11 8 8 7 -3 13 -11 13 -19 0 -8 -5 -11 -10 -8 -6 3 -7 1 -3 -5 10 -16 11 -16
42 13 14 13 30 23 34 20 4 -2 6 7 4 21 -2 18 2 24 11 20 9 -3 12 0 8 10 -4 10
-9 12 -18 4 -6 -5 -15 -7 -18 -3 -4 3 -7 1 -7 -5 0 -7 5 -12 10 -12 6 0 1 -9
-10 -20 -11 -11 -20 -24 -20 -30 0 -5 -5 -10 -12 -10 -6 0 -8 3 -5 7 4 3 2 12
-5 20 -9 11 -7 12 8 6 17 -6 18 -5 4 13 -8 10 -11 16 -6 12 5 -4 16 2 26 14
19 24 60 34 61 15 0 -6 5 -1 10 12 8 19 12 21 24 11 19 -16 20 -3 1 16 -10 10
-16 10 -18 2 -2 -6 -15 -13 -29 -15 -18 -2 -20 -1 -9 6 8 5 18 7 24 4 5 -4 7
1 3 11 -4 10 -3 15 3 11 6 -3 10 -3 10 2 0 4 13 22 28 40 28 32 44 36 72 18
12 -7 13 -6 3 7 -7 8 -10 18 -6 22 4 4 0 4 -10 0 -9 -3 -17 -1 -17 4 0 6 9 9
20 7 22 -4 28 10 8 18 -10 4 -10 6 0 6 7 1 10 6 6 12 -5 8 -1 8 14 0 27 -15
35 -14 29 3 -3 7 0 19 6 25 9 9 9 14 -1 20 -11 7 -10 10 3 15 9 3 13 10 10 16
-4 6 1 7 11 3 11 -4 15 -3 10 5 -3 6 -2 13 4 17 6 4 8 11 4 16 -3 5 0 8 8 7 8
-2 12 4 10 14 -2 10 1 18 5 18 9 0 47 59 48 74 0 5 7 11 15 13 13 4 13 3 0 -6
-8 -6 -11 -11 -6 -11 4 0 1 -11 -8 -25 -16 -25 -16 -25 3 -13 11 6 17 16 14
22 -4 5 1 7 12 2 15 -5 16 -4 5 9 -7 8 -9 15 -5 15 4 0 2 6 -4 13 -8 10 -7 14
4 14 14 0 19 -11 16 -30 -1 -5 3 -5 9 -2 6 4 9 10 6 13 -3 3 0 12 7 20 9 13 9
14 0 8 -7 -4 -21 -2 -30 4 -17 11 -17 11 0 6 14 -5 17 -2 12 13 -3 10 1 23 8
29 10 9 14 8 14 -3 0 -8 -5 -11 -10 -8 -6 3 -7 1 -3 -5 4 -7 11 -12 17 -12 10
0 8 28 -4 47 -6 9 0 12 22 9 29 -3 30 -2 16 18 -17 24 -20 50 -4 41 6 -4 9 -1
8 6 -3 23 22 79 35 79 7 0 18 -10 23 -23 10 -21 11 -21 9 5 0 14 -4 24 -8 21
-5 -2 -8 1 -8 7 0 6 -5 8 -12 4 -10 -6 -10 -5 -1 8 7 8 12 17 10 19 -1 2 3 -2
9 -9 9 -10 13 -10 18 3 3 9 2 14 -3 11 -16 -10 -20 21 -6 47 7 14 10 29 7 33
-4 3 2 4 14 0 14 -4 21 -2 21 8 0 8 -6 12 -14 9 -12 -5 -11 2 2 33 9 22 19 53
22 69 6 39 9 41 30 24 14 -12 16 -12 8 0 -13 22 -13 89 -1 114 7 12 12 33 13
46 1 13 7 27 14 31 8 6 8 9 -2 13 -11 3 -11 7 -2 17 6 7 9 19 6 28 -4 8 2 21
12 28 10 8 14 14 7 14 -16 0 -10 52 8 68 8 8 10 11 4 8 -6 -3 -11 6 -11 24 0
18 4 27 11 23 6 -3 6 -1 -1 7 -12 13 -7 40 11 52 7 5 8 8 1 8 -15 0 -16 140
-1 140 7 0 8 3 1 8 -6 4 -11 32 -12 62 0 30 -2 78 -4 106 -1 28 1 56 6 64 6 9
4 11 -5 5 -9 -6 -11 2 -7 34 2 22 0 38 -4 35 -5 -3 -9 10 -10 28 -1 35 -1 39
-18 118 -6 28 -9 56 -5 61 3 5 0 9 -5 9 -6 0 -11 8 -11 18 0 9 -11 53 -24 96
-14 44 -23 83 -20 87 2 4 1 9 -4 11 -4 1 -18 32 -31 68 -13 36 -48 116 -77
178 -30 62 -51 118 -48 124 4 6 3 8 -4 4 -13 -8 -65 82 -55 97 3 6 1 7 -6 3
-12 -8 -32 33 -23 48 3 5 0 6 -6 2 -6 -4 -28 19 -52 54 -64 95 -178 226 -281
325 -274 264 -630 463 -993 556 -186 48 -293 61 -526 64 -124 2 -236 2 -250
-1z m-1880 -3084 c0 -5 -2 -10 -4 -10 -3 0 -8 5 -11 10 -3 6 -1 10 4 10 6 0
11 -4 11 -10z m4110 -200 c0 -5 -2 -10 -4 -10 -3 0 -8 5 -11 10 -3 6 -1 10 4
10 6 0 11 -4 11 -10z m-219 -343 c-6 -8 -7 -18 -3 -22 4 -5 2 -5 -5 -1 -14 8
-6 36 9 36 7 0 6 -5 -1 -13z m-3443 -184 c-9 -12 -9 -14 3 -13 7 1 21 2 29 1
13 -1 13 -3 1 -10 -21 -14 -56 6 -42 23 7 9 7 17 -2 26 -10 12 -9 12 6 1 14
-11 15 -17 5 -28z m3004 -245 c-7 -7 -12 -19 -12 -27 0 -11 3 -11 13 4 9 11
16 14 20 8 4 -6 0 -17 -9 -24 -14 -11 -18 -10 -30 5 -12 17 -11 21 4 32 22 17
30 18 14 2z m-37 -28 c3 -5 1 -10 -4 -10 -6 0 -11 5 -11 10 0 6 2 10 4 10 3 0
8 -4 11 -10z m-75 -80 c0 -5 -5 -10 -11 -10 -5 0 -7 5 -4 10 3 6 8 10 11 10 2
0 4 -4 4 -10z m-2339 -67 c13 -15 12 -15 -8 -4 -24 12 -29 21 -14 21 5 0 15
-7 22 -17z m23 -25 c-6 -19 -4 -21 7 -12 18 15 52 14 40 0 -5 -6 -9 -15 -9
-21 -1 -19 -20 -16 -40 6 -16 17 -18 24 -9 35 17 19 19 17 11 -8z m1906 -103
c-6 -17 -6 -25 1 -25 6 0 3 -7 -5 -15 -19 -19 -59 -3 -50 19 7 19 34 29 35 13
0 -7 4 -2 9 11 13 30 22 28 10 -3z m-70 -15 c0 -5 -5 -10 -11 -10 -5 0 -7 5
-4 10 3 6 8 10 11 10 2 0 4 -4 4 -10z m-1403 -36 c-3 -3 -12 -4 -19 -1 -8 3
-5 6 6 6 11 1 17 -2 13 -5z m23 -14 c0 -5 -5 -10 -11 -10 -5 0 -7 5 -4 10 3 6
8 10 11 10 2 0 4 -4 4 -10z m1345 -10 c-3 -5 -11 -10 -16 -10 -6 0 -7 5 -4 10
3 6 11 10 16 10 6 0 7 -4 4 -10z m-1265 -15 c11 -13 10 -14 -4 -9 -9 3 -16 10
-16 15 0 13 6 11 20 -6z m-100 -5 c0 -5 -2 -10 -4 -10 -3 0 -8 5 -11 10 -3 6
-1 10 4 10 6 0 11 -4 11 -10z m1090 -26 c0 6 6 1 14 -9 15 -21 12 -40 -5 -29
-5 3 -7 10 -4 15 8 12 -9 11 -22 -2 -7 -7 -12 -6 -16 5 -4 10 -1 13 9 9 10 -4
13 0 8 13 -5 16 -4 16 5 4 6 -8 11 -11 11 -6z m-150 -4 c0 -5 -5 -10 -11 -10
-5 0 -7 5 -4 10 3 6 8 10 11 10 2 0 4 -4 4 -10z m100 0 c0 -5 -4 -10 -10 -10
-5 0 -10 5 -10 10 0 6 5 10 10 10 6 0 10 -4 10 -10z m-322 -35 c-3 -3 -9 2
-12 12 -6 14 -5 15 5 6 7 -7 10 -15 7 -18z m43 2 c-10 -9 -11 -8 -5 6 3 10 9
15 12 12 3 -3 0 -11 -7 -18z m43 8 c-4 -8 -11 -15 -17 -15 -6 0 -2 -6 8 -14
11 -8 24 -12 29 -9 5 4 6 1 2 -5 -5 -9 -14 -7 -32 4 -28 19 -28 18 -8 38 19
20 25 20 18 1z m-280 -56 c-3 -5 -10 -7 -15 -3 -5 3 -7 10 -3 15 3 5 10 7 15
3 5 -3 7 -10 3 -15z"/>
<path d="M1505 531 c-6 -11 13 -26 22 -17 4 3 0 6 -8 6 -11 0 -11 2 1 10 9 6
10 10 3 10 -6 0 -14 -4 -18 -9z"/>
<path d="M3356 421 c-3 -5 1 -11 9 -15 15 -6 29 7 18 18 -9 9 -21 8 -27 -3z"/>
<path d="M4836 2618 c3 -5 10 -6 15 -3 13 9 11 12 -6 12 -8 0 -12 -4 -9 -9z"/>
<path d="M274 2529 c-3 -6 -2 -15 3 -20 5 -5 9 -1 9 11 0 23 -2 24 -12 9z"/>
<path d="M4834 2440 c0 -13 4 -16 10 -10 7 7 7 13 0 20 -6 6 -10 3 -10 -10z"/>
<path d="M4816 2255 c-9 -26 -7 -32 5 -12 6 10 9 21 6 23 -2 3 -7 -2 -11 -11z"/>
<path d="M301 2234 c0 -11 3 -14 6 -6 3 7 2 16 -1 19 -3 4 -6 -2 -5 -13z"/>
<path d="M4796 2182 c-2 -4 4 -8 14 -8 10 0 16 4 14 8 -3 4 -9 8 -14 8 -5 0
-11 -4 -14 -8z"/>
<path d="M313 2150 c1 -11 5 -20 9 -20 3 0 6 9 5 20 -1 11 -5 20 -9 20 -3 0
-6 -9 -5 -20z"/>
<path d="M333 2085 c0 -8 4 -12 9 -9 5 3 6 10 3 15 -9 13 -12 11 -12 -6z"/>
<path d="M4753 1993 c0 -9 4 -10 14 -2 7 6 13 12 13 14 0 1 -6 2 -13 2 -8 0
-14 -6 -14 -14z"/>
<path d="M4765 1960 c-3 -6 1 -7 9 -4 18 7 21 14 7 14 -6 0 -13 -4 -16 -10z"/>
<path d="M353 1915 c0 -8 4 -12 9 -9 5 3 6 10 3 15 -9 13 -12 11 -12 -6z"/>
<path d="M4734 1902 c3 -5 0 -13 -6 -15 -9 -4 -10 -6 -1 -6 17 -1 25 16 12 25
-7 4 -9 3 -5 -4z"/>
<path d="M385 1840 c-3 -5 -2 -10 4 -10 5 0 13 5 16 10 3 6 2 10 -4 10 -5 0
-13 -4 -16 -10z"/>
<path d="M4712 1845 c3 -3 16 -8 28 -10 12 -2 20 -1 16 2 -4 4 -16 8 -28 10
-12 2 -19 1 -16 -2z"/>
<path d="M400 1820 c-9 -6 -10 -10 -3 -10 6 0 15 5 18 10 8 12 4 12 -15 0z"/>
<path d="M4700 1820 c0 -6 7 -10 15 -10 8 0 15 2 15 4 0 2 -7 6 -15 10 -8 3
-15 1 -15 -4z"/>
<path d="M4679 1755 c-1 -3 -2 -8 -3 -12 -1 -5 -5 -15 -11 -23 -7 -12 -6 -13
7 -3 8 7 19 9 24 5 4 -4 2 2 -6 12 -14 18 -13 19 3 13 11 -4 16 -3 12 3 -6 10
-24 14 -26 5z"/>
<path d="M410 1740 c0 -5 5 -10 11 -10 5 0 7 5 4 10 -3 6 -8 10 -11 10 -2 0
-4 -4 -4 -10z"/>
<path d="M4690 1699 c0 -5 5 -7 10 -4 6 3 10 8 10 11 0 2 -4 4 -10 4 -5 0 -10
-5 -10 -11z"/>
<path d="M476 1635 c3 -11 7 -26 7 -32 0 -7 4 -13 9 -13 12 0 9 11 -8 40 -10
17 -13 18 -8 5z"/>
<path d="M4625 1629 c-4 -6 -4 -13 -1 -16 3 -3 -1 -11 -10 -18 -14 -10 -14
-13 3 -26 17 -13 17 -13 3 5 -14 18 -13 18 10 13 14 -4 19 -4 12 -1 -10 5 -10
9 0 22 11 13 11 14 -1 7 -11 -6 -13 -4 -8 8 7 19 2 23 -8 6z"/>
<path d="M454 1609 c-3 -6 -2 -15 3 -20 5 -5 9 -1 9 11 0 23 -2 24 -12 9z"/>
<path d="M498 1573 c6 -2 12 -11 12 -19 0 -8 5 -14 10 -14 7 0 7 6 0 20 -6 11
-16 20 -23 19 -9 0 -9 -2 1 -6z"/>
<path d="M4590 1546 c0 -2 7 -9 15 -16 13 -11 14 -10 9 4 -5 14 -24 23 -24 12z"/>
<path d="M530 1521 c0 -6 5 -11 11 -11 5 0 8 -4 5 -9 -3 -5 0 -14 8 -20 19
-16 9 -61 -13 -54 -13 4 -14 3 -1 -5 18 -14 30 -6 30 19 0 13 4 18 13 13 6 -4
2 4 -11 18 -12 13 -20 27 -17 30 3 3 -1 11 -10 18 -10 8 -15 9 -15 1z"/>
<path d="M517 1489 c4 -13 8 -18 11 -10 2 7 -1 18 -6 23 -8 8 -9 4 -5 -13z"/>
<path d="M4580 1479 c0 -5 5 -7 10 -4 6 3 10 8 10 11 0 2 -4 4 -10 4 -5 0 -10
-5 -10 -11z"/>
<path d="M535 1460 c-3 -5 -1 -10 4 -10 6 0 11 5 11 10 0 6 -2 10 -4 10 -3 0
-8 -4 -11 -10z"/>
<path d="M4575 1441 c-3 -5 -2 -12 3 -15 5 -3 9 1 9 9 0 17 -3 19 -12 6z"/>
<path d="M592 1363 c2 -14 7 -19 17 -15 10 4 12 1 6 -9 -7 -12 -6 -12 7 -1 11
9 18 10 23 2 3 -5 1 -10 -4 -10 -6 0 -11 -5 -11 -11 0 -5 5 -7 12 -3 7 5 9 2
5 -9 -4 -12 -2 -14 11 -10 9 3 14 3 10 -2 -10 -11 12 -36 24 -29 5 3 -3 19
-18 35 -15 16 -24 29 -19 29 4 0 0 9 -10 20 -10 11 -22 17 -27 13 -6 -3 -14 1
-19 8 -6 10 -8 8 -7 -8z"/>
<path d="M4514 1335 c-4 -8 -10 -13 -14 -10 -5 3 -11 1 -14 -4 -4 -5 1 -8 10
-7 15 2 42 36 29 36 -3 0 -8 -7 -11 -15z"/>
<path d="M4458 1318 c-3 -7 -6 -17 -7 -23 -1 -5 -11 -19 -22 -31 -15 -17 -16
-21 -4 -21 8 0 13 2 11 5 -6 5 17 31 24 27 3 -2 11 4 19 12 12 13 11 14 -10 8
-21 -7 -22 -6 -10 9 8 9 12 19 9 22 -3 3 -8 -1 -10 -8z"/>
<path d="M610 1300 c0 -5 5 -10 11 -10 5 0 7 5 4 10 -3 6 -8 10 -11 10 -2 0
-4 -4 -4 -10z"/>
<path d="M661 1253 c7 -12 15 -20 18 -17 3 2 -3 12 -13 22 -17 16 -18 16 -5
-5z"/>
<path d="M4394 1214 c-18 -14 -18 -14 6 -3 31 14 36 19 24 19 -6 0 -19 -7 -30
-16z"/>
<path d="M4438 1216 c-22 -16 -23 -23 -3 -23 8 0 13 3 10 5 -3 3 0 11 6 19 14
16 9 16 -13 -1z"/>
<path d="M4386 1174 c-9 -24 -7 -27 9 -10 17 17 19 26 6 26 -5 0 -12 -7 -15
-16z"/>
<path d="M4334 1114 c-1 -13 1 -24 5 -24 9 0 12 38 3 44 -4 2 -8 -7 -8 -20z"/>
<path d="M750 1100 c0 -5 5 -10 11 -10 5 0 7 5 4 10 -3 6 -8 10 -11 10 -2 0
-4 -4 -4 -10z"/>
<path d="M4254 1049 c-39 -40 -17 -52 23 -13 24 23 29 33 19 37 -8 3 -26 -8
-42 -24z m36 18 c0 -2 -12 -14 -27 -28 l-28 -24 24 28 c23 25 31 32 31 24z"/>
<path d="M860 1045 c0 -5 5 -17 10 -25 5 -8 10 -10 10 -5 0 6 -5 17 -10 25 -5
8 -10 11 -10 5z"/>
<path d="M4300 1040 c-8 -5 -10 -10 -5 -10 6 0 17 5 25 10 8 5 11 10 5 10 -5
0 -17 -5 -25 -10z"/>
<path d="M850 1011 c0 -7 -5 -9 -12 -5 -7 5 -8 3 -3 -5 5 -9 10 -10 18 -2 6 6
8 14 4 18 -4 3 -7 1 -7 -6z"/>
<path d="M4266 1011 c-3 -5 2 -15 12 -22 15 -13 16 -12 4 3 -10 13 -10 17 0
21 9 4 9 6 1 6 -6 1 -14 -3 -17 -8z"/>
<path d="M830 977 c0 -2 6 -10 14 -16 11 -9 16 -9 22 1 4 7 4 10 -1 6 -4 -4
-14 -3 -22 3 -7 6 -13 9 -13 6z"/>
<path d="M4214 939 c-3 -6 -2 -15 3 -20 5 -5 9 -1 9 11 0 23 -2 24 -12 9z"/>
<path d="M994 896 c-3 -9 -10 -13 -15 -10 -5 3 -6 -2 -2 -11 4 -11 8 -13 13
-6 4 8 12 5 24 -8 11 -12 14 -21 7 -26 -6 -3 -11 -11 -11 -18 0 -6 6 -3 13 7
7 9 22 18 34 19 12 0 19 5 16 9 -2 5 -13 6 -23 3 -18 -6 -33 7 -36 33 -4 22
-13 26 -20 8z"/>
<path d="M4079 858 c-7 -15 -6 -59 2 -63 5 -3 6 1 3 10 -5 11 -2 14 12 9 17
-5 17 -5 2 6 -9 6 -15 17 -12 25 5 12 -2 23 -7 13z"/>
<path d="M990 839 c0 -5 5 -7 10 -4 6 3 10 8 10 11 0 2 -4 4 -10 4 -5 0 -10
-5 -10 -11z"/>
<path d="M4051 842 c-1 -8 -6 -10 -13 -6 -10 5 -10 4 -1 -6 15 -16 28 -8 20
12 -4 11 -6 11 -6 0z"/>
<path d="M1073 765 c0 -8 4 -15 9 -15 4 0 8 7 8 15 0 8 -4 15 -8 15 -5 0 -9
-7 -9 -15z"/>
<path d="M1144 763 c3 -22 27 -24 34 -3 3 8 1 12 -3 8 -5 -4 -14 -3 -21 3 -9
7 -12 6 -10 -8z"/>
<path d="M3976 727 c3 -10 9 -15 12 -12 3 3 0 11 -7 18 -10 9 -11 8 -5 -6z"/>
<path d="M4015 731 c-3 -5 -2 -12 3 -15 5 -3 9 1 9 9 0 17 -3 19 -12 6z"/>
<path d="M1190 721 c0 -6 5 -11 10 -11 6 0 10 -5 10 -11 0 -5 -4 -7 -10 -4 -5
3 -10 1 -10 -5 0 -7 6 -10 14 -7 15 6 34 -10 34 -28 0 -5 5 -10 12 -11 6 -2 7
-1 0 3 -5 2 -7 9 -4 14 3 6 12 5 22 -3 12 -10 14 -10 8 0 -4 6 -2 12 3 12 6 0
11 5 11 11 0 8 -4 8 -14 0 -9 -8 -16 -8 -20 -2 -12 18 -66 53 -66 42z m51 -38
c13 -16 12 -17 -3 -4 -10 7 -18 15 -18 17 0 8 8 3 21 -13z"/>
<path d="M1146 698 c3 -4 11 -5 19 -1 21 7 19 12 -4 10 -11 0 -18 -5 -15 -9z"/>
<path d="M3946 678 c3 -5 10 -6 15 -3 13 9 11 12 -6 12 -8 0 -12 -4 -9 -9z"/>
<path d="M3840 630 c-8 -5 -12 -12 -9 -15 4 -3 12 1 19 10 14 17 11 19 -10 5z"/>
<path d="M1336 567 c3 -10 9 -15 12 -12 3 3 0 11 -7 18 -10 9 -11 8 -5 -6z"/>
<path d="M3630 519 c0 -3 9 -9 19 -12 13 -3 18 0 15 7 -5 13 -34 18 -34 5z"/>
<path d="M1565 503 c4 -14 0 -25 -12 -33 -12 -7 -13 -10 -3 -7 8 2 21 -3 28
-12 10 -14 11 -13 5 4 -6 18 -5 19 12 5 10 -8 28 -14 39 -12 17 2 18 1 6 -7
-13 -9 -12 -11 3 -11 11 0 15 -4 11 -12 -4 -7 -3 -8 4 -4 6 4 8 14 5 23 -6 15
-5 16 9 3 11 -11 13 -19 6 -28 -6 -7 -8 -15 -4 -19 3 -3 6 -1 6 6 0 7 4 10 9
7 5 -4 8 2 6 11 -2 10 -4 23 -4 30 -1 6 -9 10 -19 8 -11 -2 -30 9 -47 26 -15
17 -30 27 -33 24 -4 -3 0 -10 7 -14 9 -6 10 -11 2 -15 -6 -4 -11 -3 -11 1 0 5
-7 18 -16 29 -15 19 -15 18 -9 -3z m59 -44 c-3 -5 -10 -7 -15 -3 -5 3 -7 10
-3 15 3 5 10 7 15 3 5 -3 7 -10 3 -15z"/>
<path d="M3530 510 c-8 -5 -13 -10 -10 -11 3 0 14 -2 25 -4 11 -2 25 -12 32
-21 7 -10 13 -13 13 -8 0 6 -10 20 -23 32 -16 15 -27 18 -37 12z"/>
<path d="M1547 439 c7 -7 15 -10 18 -7 3 3 -2 9 -12 12 -14 6 -15 5 -6 -5z"/>
<path d="M3425 440 c-3 -5 -2 -10 4 -10 5 0 13 5 16 10 3 6 2 10 -4 10 -5 0
-13 -4 -16 -10z"/>
<path d="M3510 430 c8 -5 20 -10 25 -10 6 0 3 5 -5 10 -8 5 -19 10 -25 10 -5
0 -3 -5 5 -10z"/>
<path d="M1590 426 c0 -2 9 -6 20 -9 11 -3 18 -1 14 4 -5 9 -34 13 -34 5z"/>
<path d="M1714 401 c0 -16 3 -28 5 -26 2 3 12 0 21 -5 15 -8 18 -6 16 8 -2 9
2 21 8 25 7 6 6 7 -4 4 -8 -2 -14 -10 -12 -17 1 -6 -3 -10 -10 -8 -7 3 -12 15
-12 26 1 12 -2 22 -6 22 -4 0 -7 -13 -6 -29z"/>
<path d="M1783 398 c-13 -16 -13 -49 -1 -42 5 4 7 12 4 20 -3 8 -2 14 3 14 15
0 20 -13 11 -30 -7 -13 -6 -20 4 -23 10 -4 12 0 9 14 -3 11 0 19 6 19 7 0 9
-6 5 -12 -4 -8 -3 -10 2 -5 14 13 11 31 -6 44 -19 16 -25 16 -37 1z"/>
<path d="M1870 365 c0 -9 -4 -13 -10 -10 -6 3 -7 -1 -4 -9 3 -9 16 -15 28 -15
17 1 18 2 3 6 -14 4 -15 8 -7 18 8 9 8 15 0 20 -5 3 -10 -1 -10 -10z"/>
<path d="M3145 360 c-3 -5 1 -10 10 -10 9 0 13 5 10 10 -3 6 -8 10 -10 10 -2
0 -7 -4 -10 -10z"/>
<path d="M3359 360 c-9 -6 -6 -8 14 -6 32 3 43 11 18 13 -9 1 -24 -2 -32 -7z"/>
<path d="M3330 351 c0 -6 4 -13 10 -16 6 -3 7 1 4 9 -7 18 -14 21 -14 7z"/>
<path d="M1955 340 c-3 -5 1 -10 10 -10 9 0 13 5 10 10 -3 6 -8 10 -10 10 -2
0 -7 -4 -10 -10z"/>
<path d="M2135 320 c-3 -5 -1 -10 4 -10 6 0 11 5 11 10 0 6 -2 10 -4 10 -3 0
-8 -4 -11 -10z"/>
<path d="M3214 319 c-3 -6 -1 -16 5 -22 9 -9 10 -7 5 7 -6 16 -4 18 10 13 10
-4 15 -3 11 3 -8 13 -22 13 -31 -1z"/>
<path d="M1975 290 c-4 -6 -11 -7 -17 -4 -7 4 -8 2 -4 -5 6 -9 11 -9 22 0 14
11 18 19 10 19 -3 0 -8 -5 -11 -10z"/>
<path d="M2761 291 c-9 -6 -10 -11 -2 -15 6 -4 11 -2 11 5 0 21 13 0 15 -24 2
-31 29 -28 29 3 0 14 -4 25 -9 25 -6 0 -15 3 -20 7 -6 4 -17 3 -24 -1z"/>
<path d="M1916 282 c-3 -5 1 -9 9 -9 8 0 12 4 9 9 -3 4 -7 8 -9 8 -2 0 -6 -4
-9 -8z"/>
<path d="M1996 282 c-3 -5 1 -9 9 -9 8 0 12 4 9 9 -3 4 -7 8 -9 8 -2 0 -6 -4
-9 -8z"/>
<path d="M3160 280 c-9 -6 -10 -10 -3 -10 6 0 15 5 18 10 8 12 4 12 -15 0z"/>
<path d="M2470 273 c0 -3 9 -16 20 -30 11 -14 20 -21 20 -16 0 5 -5 14 -12 21
-8 8 -8 12 -1 12 15 0 34 -25 25 -35 -4 -5 -1 -5 6 -1 7 4 10 11 7 16 -3 5 4
8 15 7 11 -1 20 -6 20 -12 0 -5 5 -3 11 5 9 12 10 11 6 -7 -3 -13 -3 -23 -1
-23 8 0 22 45 17 53 -3 4 -11 3 -19 -4 -8 -7 -14 -7 -14 -1 0 15 -31 24 -45
12 -6 -5 -15 -7 -19 -3 -8 8 -36 13 -36 6z"/>
<path d="M3000 266 c0 -2 7 -7 16 -10 8 -3 12 -2 9 4 -6 10 -25 14 -25 6z"/>
<path d="M2049 243 c-13 -16 -12 -17 4 -4 16 13 21 21 13 21 -2 0 -10 -8 -17
-17z"/>
<path d="M2140 246 c0 -2 8 -10 18 -17 15 -13 16 -12 3 4 -13 16 -21 21 -21
13z"/>
<path d="M2285 240 c-2 -4 3 -7 13 -6 9 0 16 -4 15 -11 -2 -8 4 -10 14 -6 11
4 13 8 5 11 -7 2 -10 7 -8 11 3 4 -4 7 -14 8 -11 1 -22 -2 -25 -7z"/>
<path d="M2859 248 c-6 -21 -5 -37 2 -32 5 3 7 9 4 14 -3 4 1 11 7 13 10 4 10
6 1 6 -7 1 -13 0 -14 -1z"/>
<path d="M2990 240 c0 -5 5 -10 11 -10 5 0 7 5 4 10 -3 6 -8 10 -11 10 -2 0
-4 -4 -4 -10z"/>
<path d="M2706 223 c-6 -14 -5 -15 5 -6 7 7 10 15 7 18 -3 3 -9 -2 -12 -12z"/>
<path d="M2190 226 c0 -2 7 -7 16 -10 8 -3 12 -2 9 4 -6 10 -25 14 -25 6z"/>
<path d="M2410 220 c0 -5 5 -10 11 -10 5 0 7 5 4 10 -3 6 -8 10 -11 10 -2 0
-4 -4 -4 -10z"/>
<path d="M2470 221 c0 -6 4 -12 8 -15 5 -3 9 1 9 9 0 8 -4 15 -9 15 -4 0 -8
-4 -8 -9z"/>
<path d="M2550 220 c0 -5 5 -10 11 -10 5 0 7 5 4 10 -3 6 -8 10 -11 10 -2 0
-4 -4 -4 -10z"/>
<path d="M2755 220 c-3 -5 -1 -10 4 -10 6 0 11 5 11 10 0 6 -2 10 -4 10 -3 0
-8 -4 -11 -10z"/>
<path d="M2600 200 c-9 -6 -10 -10 -3 -10 6 0 15 5 18 10 8 12 4 12 -15 0z"/>
</g>
</svg>
