<svg width="160" height="120" xmlns="http://www.w3.org/2000/svg"><path d="M107.42 26.692l.109.886-1.328.281-.18 1.895h1.602l2.124-.203 1.094-1.76-1.805-.736-.96-1.557-.453-2.194-1.813.363-.5.777v.871l.867.596 1.242.78zm-1.54.726l.094-1.187-1.054-.455-1.48.344-1.106 1.759v1.144h1.285l2.262-1.605zM75.413 32.47l-.328.84h-1.58v.816h.377l.057.4.967-.08.599-.377.156-.755.785-.069.307-.635-.72-.148-.62.008zm-4.071 1.48l-.059.795 1.147-.096.117-.799-.688-.54-.517.64zm68.615 25.422a60.394 60.394 0 0 0-.27-5.211 59.502 59.502 0 0 0-3.976-16.333c-.148-.379-.288-.767-.449-1.146a60.18 60.18 0 0 0-12.181-18.365 58.25 58.25 0 0 0-2.742-2.68C109.677 5.927 95.51 0 79.988 0 64.335 0 50.066 6.036 39.373 15.89a60.974 60.974 0 0 0-6.86 7.49C24.68 33.518 20 46.215 20 59.988c0 33.075 26.91 59.987 59.988 59.987 23.268 0 43.467-13.325 53.41-32.739a59.405 59.405 0 0 0 5.64-16.766c.605-3.407.937-6.911.937-10.486-.008-.2-.02-.405-.02-.612zm-11.291-23.975l.343-.39c.46.885.89 1.785 1.293 2.698l-.574-.024-1.066.147v-2.431h.004zm-8.67-10.47l.007-2.68c.945.998 1.852 2.03 2.719 3.097l-1.078 1.607-3.78-.037-.235-.787 2.367-1.2zm-72.36-6.653v-.102h1.199l.11-.412h1.962v.857l-.569.752h-2.706v-1.096h.004zm1.92 2.675s1.202-.205 1.308-.205c.1 0 0 1.2 0 1.2l-2.716.173-.516-.621 1.924-.547zm82.93 23.81h-4.39l-2.68-1.99-2.811.271v1.718h-.89l-.958-.683-4.878-1.234v-3.16l-6.178.479-1.917 1.029h-2.45l-1.206-.121-2.976 1.656v3.11l-6.083 4.392.504 1.877h1.236l-.324 1.786-.867.32-.045 4.667 5.255 5.991h2.292l.137-.363h4.116l1.187-1.098h2.335l1.282 1.281 3.471.36-.456 4.624 3.866 6.817-2.038 3.89.136 1.827 1.605 1.598v4.401l2.102 2.828v3.663h1.812c-10.1 12.408-25.487 20.347-42.698 20.347-30.357 0-55.053-24.69-55.053-55.05a54.708 54.708 0 0 1 4.395-21.543v-1.717l1.968-2.39a53.554 53.554 0 0 1 2.2-3.776l.083 1-2.282 2.777a53.9 53.9 0 0 0-1.968 4.106v3.13l2.28 1.101v4.355l2.197 3.743 1.787.272.228-1.283-2.099-3.248-.416-3.155h1.236l.524 3.251L38.1 51.05l-.783 1.435 1.927 2.956 4.804 1.188v-.776l1.92.272-.18 1.37 1.507.278 2.336.635 3.294 3.755 4.204.316.416 3.43-2.884 2.012-.131 3.064-.416 1.879 4.163 5.21.319 1.788s1.509.406 1.696.406c.18 0 3.383 2.43 3.383 2.43v9.42l1.14.323-.771 4.343 1.92 2.566-.36 4.312 2.543 4.46 3.259 2.847 3.27.066.32-1.058-2.407-2.026.14-1.004.428-1.238.092-1.258-1.627-.047-.82-1.03 1.352-1.305.183-.98-1.511-.434.088-.914 2.152-.328 3.27-1.57 1.098-2.02 3.427-4.39-.777-3.432 1.052-1.828 3.16.094 2.126-1.688.69-6.62 2.366-2.983.416-1.918-2.148-.687-1.42-2.333-4.847-.05-3.846-1.462-.18-2.743-1.28-2.244-3.475-.049-2.015-3.153-1.78-.87-.093.962-3.25.19-1.188-1.655-3.388-.687-2.79 3.228-4.392-.75-.32-4.95-3.203-.549 1.28-2.427-.368-1.394-4.212 2.813-2.648-.324-.946-2.07.583-2.136 1.459-2.69 3.36-1.705h6.495l-.021 1.98 2.335 1.087-.187-3.382 1.683-1.693 3.396-2.232.236-1.566 3.384-3.525 3.6-1.995-.317-.26 2.439-2.295.892.237.408.511.928-1.029.229-.1-1.016-.144-1.036-.332v-.996l.548-.447h1.203l.557.244.476.96.584-.089v-.082l.168.055 1.687-.26.24-.827.96.244v.896l-.897.611h.006l.127.984 3.064.94s0 .011.007.036l.7-.06.048-1.324-2.423-1.103-.133-.637 2.007-.683.092-1.924-2.099-1.279-.139-3.249-2.884 1.418h-1.056l.281-2.472-3.929-.924-1.619 1.228v3.738l-2.915.925-1.172 2.435-1.263.203v-3.118l-2.743-.38-1.377-.897-.551-2.02 4.911-2.87 2.4-.733.242 1.615 1.342-.072.103-.81 1.4-.202.024-.283-.6-.248-.136-.855 1.72-.145 1.039-1.08.06-.08.012.004.317-.328 3.614-.455 1.595 1.356-4.19 2.231 5.334 1.26.688-1.785H82l.82-1.555-1.648-.412v-1.968l-5.162-2.287-3.57.412-2.017 1.05.137 2.565-2.104-.32-.324-1.416 2.02-1.832-3.664-.18-1.05.32-.457 1.237 1.373.23-.273 1.373-2.332.136-.367.916-3.386.093s-.092-1.92-.237-1.92c-.13 0 2.656-.048 2.656-.048l2.015-1.966-1.1-.549-1.458 1.42-2.427-.137-1.48-2.023h-3.11l-3.248 2.423h2.974l.267.873-.775.73 3.296.094.5 1.187-3.708-.136-.184-.916-2.327-.504-1.24-.684-2.775.024C56.725 8.859 67.898 4.94 79.98 4.94c13.917 0 26.643 5.201 36.344 13.752l-.648 1.168-2.543.995-1.074 1.164.25 1.351 1.309.184.792 1.972 2.254-.912.379 2.642h-.688l-1.855-.275-2.054.343-1.992 2.816-2.843.444-.41 2.437 1.203.283-.352 1.568-2.827-.568-2.59.568-.55 1.443.445 3.028 1.523.711 2.558-.015 1.722-.157.53-1.37 2.696-3.504 1.77.364 1.745-1.58.328 1.236 4.296 2.898-.524.709-1.937-.104.75 1.055 1.195.265 1.398-.584-.031-1.681.625-.31-.5-.53-2.867-1.6-.757-2.121h2.386l.754.755 2.062 1.767.082 2.14 2.128 2.264.79-3.103 1.476-.805.27 2.539 1.44 1.58 2.87-.047a50.696 50.696 0 0 1 1.489 4.362l-.312.28zM52.714 27.257l1.435-.687 1.305.312-.445 1.752-1.406.443-.89-1.82zm7.647 4.12v1.133h-3.289l-1.24-.346.309-.787 1.58-.652h2.163v.652h.477zm1.515 1.58v1.095l-.828.532-1.023.193v-1.82h1.851zm-.927-.447v-1.309l1.13 1.031-1.13.278zm.515 2.638v1.068l-.789.79h-1.752l.274-1.202.828-.072.168-.412 1.27-.172zm-4.358-2.191h1.818l-2.336 3.26-.958-.516.207-1.373 1.269-1.371zm7.442 1.82v1.064h-1.752l-.476-.693v-.992h.136l2.092.62zM62.94 33.31l.495-.524.84.524-.672.556-.663-.556zm70.434 14.229l.172-.205c.078.312.148.625.222.937l-.394-.732zM29.322 36.729l1.968-2.393a53.64 53.64 0 0 0-1.968 4.109v-1.716z"/></svg>